<?xml version="1.0" encoding="utf-8"?>
  <!-- Generator: Adobe Illustrator 19.0.0, SVG Export Plug-In . SVG Version: 6.00 Build 0)  -->
  <svg version="1.1" id="Layer_1" xmlns="http://www.w3.org/2000/svg" xmlns:xlink="http://www.w3.org/1999/xlink" x="0px" y="0px" viewBox="0 0 960 560" style="enable-background:new 0 0 960 560;" xml:space="preserve">

    <g transform="translate(549.9, 168)">
      <g class="keepRotatingOne">
        <polygon id="XMLID_1_" class="st0" points="537,301.5 564,301.5 569,275.8 594.7,267.5 613.3,287.1 635.7,271.7 625,247 637,233.7 
	662.7,242.3 674.3,218 653.3,200.3 657.6,184 683.5,179.3 683.5,152 656.1,147.3 652.2,131 672.6,113.3 659.3,90.7 633.3,98.3 
	619,84.3 630,64.3 607,49.7 590,68.3 568.3,62.3 563.7,34.5 537,34.5 531,62.3 506.3,69.5 488.3,49.6 465,64.7 476,89.7 465,102.3 
	438,93.7 426.3,117.7 447,135 443,152 416.3,157 417,184.3 443.7,188.8 448.5,205.8 428.2,222.7 441.7,246.3 467.5,237.8 480,250.7 
	470,274.3 492.3,287.8 510.5,269 532.5,275.5 " transform="translate(-549.9, -168)"/>
      </g>
    </g>
    <ellipse id="XMLID_3_" class="st0" cx="550.5" cy="168.5" rx="91.6" ry="89.5" />
    <text id="XMLID_4_" transform="matrix(1 0 0 1 519.3203 166.4999)">
      <tspan x="0" y="0" class="st1 st2 st3">ProCess</tspan>
      <tspan x="-36.4" y="16.8" class="st1 st2 st3">Standardization</tspan>
    </text>
  </svg>